<svg xmlns="http://www.w3.org/2000/svg" xmlns:xlink="http://www.w3.org/1999/xlink" contentStyleType="text/css" data-diagram-type="DESCRIPTION" height="1302px" preserveAspectRatio="none" style="width:628px;height:1302px;background:#FEFEFE;" version="1.1" viewBox="0 0 628 1302" width="628px" zoomAndPan="magnify"><title>Sistema de Coleta de Dados de Produ&#231;&#227;o - POC</title><defs/><g><rect fill="#FEFEFE" height="1302" style="stroke:none;stroke-width:1;" width="628" x="0" y="0"/><g class="title" data-source-line="6"><text fill="#000000" font-family="sans-serif" font-size="14" font-weight="bold" lengthAdjust="spacing" textLength="318.9648" x="147.6125" y="24.5332">Sistema de Coleta de Dados de Produ&#231;&#227;o - POC</text></g><!--cluster Centro de Produ??o--><g class="cluster" data-entity="Centro de Produ..o" data-source-line="9" data-uid="ent0002" id="cluster_Centro de Produ..o"><rect fill="#FFFFE0" height="582.5" rx="2.5" ry="2.5" style="stroke:#181818;stroke-width:1;" width="200" x="219.5" y="45.6094"/><text fill="#000000" font-family="sans-serif" font-size="14" font-weight="bold" lengthAdjust="spacing" textLength="133.793" x="252.6035" y="62.1426">Centro de Produ&#231;&#227;o</text></g><!--cluster Raspberry Pi #1\n[Publisher]--><g class="cluster" data-entity="Raspberry Pi .1.n.Publisher." data-source-line="12" data-uid="ent0004" id="cluster_Raspberry Pi .1.n.Publisher."><rect fill="#FFC0CB" height="360" rx="2.5" ry="2.5" style="stroke:#181818;stroke-width:1;" width="152" x="243.5" y="244.1094"/><text fill="#000000" font-family="sans-serif" font-size="14" font-weight="bold" lengthAdjust="spacing" textLength="105.834" x="266.583" y="260.6426">Raspberry Pi #1</text><text fill="#000000" font-family="sans-serif" font-size="14" font-weight="bold" lengthAdjust="spacing" textLength="73.1172" x="282.9414" y="278.252">[Publisher]</text></g><!--cluster Internet--><g class="cluster" data-entity="Internet" data-source-line="19" data-uid="ent0007" id="cluster_Internet"><path d="M131.7785,704.3851 C134.3873,697.7884 139.5243,695.1697 145.0396,701.374 C150.3086,693.7386 156.1546,693.8594 160.5673,702.206 C164.1473,693.9482 170.1564,694.8645 174.9996,700.9335 C178.9293,692.1829 185.6823,691.2792 191.5195,699.0231 C196.3333,691.5385 202.2267,692.7392 206.6001,699.4896 C211.0137,691.4263 215.5074,691.0267 221.4529,697.9738 C225.4497,691.6152 230.9298,692.8203 234.2988,698.6361 C240.044,692.2158 245.6721,692.7789 250.4863,699.7607 C255.0559,694.0028 260.2956,693.3496 264.7108,699.9387 C269.3803,692.5605 276.7242,691.6645 280.8212,700.5074 C285.1461,692.0446 290.471,691.8264 295.7217,699.6608 C300.9952,694.4305 305.3622,694.7414 309.4458,701.0732 C313.3851,695.4967 319.7689,694.6093 322.9062,701.9115 C332.055,693.9357 342.0323,697.0418 344.5,709.1094 C346.3005,709.3341 346.7659,710.6996 345.4901,711.9839 C352.0202,715.5447 351.9916,721.8831 346.4794,726.2774 C353.3726,729.7382 354.7785,735.527 348.3399,740.7068 C356.7266,743.4589 358.1868,750.7184 351.1576,756.2628 C359.6486,760.0558 359.4134,766.3818 352.2274,771.2908 C360.8432,774.1105 361.0119,780.4173 355.3042,786.1941 C361.5904,791.0522 361.5187,798.3057 353.2214,801.1301 C360.9359,806.2522 360.5074,813.7047 352.0858,817.7224 C358.1682,823.957 359.5816,829.4985 350.1442,833.8667 C355.9348,839.4262 354.0056,845.812 347.0332,848.6935 C353.9401,858.6217 348.3399,867.4681 337.5,869.1094 C338.2272,868.6475 338.6502,868.8632 338.7874,869.696 C334.6669,877.1173 330.1231,878.3268 323.7616,872.1773 C319.2024,879.9783 311.9648,880.5636 307.8244,871.775 C306.2733,879.8168 300.1801,880.7935 294.7006,875.6998 C290.5194,882.1557 283.6877,881.4932 280.2564,874.8715 C276.515,882.1509 270.3059,882.4196 265.3633,876.1964 C261.9803,885.6902 255.7152,885.2281 249.5782,878.9531 C246.0261,885.8525 239.3745,884.9468 235.7185,879.0657 C230.4126,885.3914 225.4688,885.816 221.3424,877.8769 C215.4899,884.4833 210.1158,885.436 205.2927,876.7934 C199.5555,882.6968 192.5156,883.3759 189.2447,874.1734 C184.4749,880.4289 179.7267,880.5366 175.9731,873.1824 C171.0042,881.0445 164.258,878.8929 160.2802,872.1197 C156.0545,879.6074 149.5191,880.214 144.892,872.5267 C132.9884,881.4857 124.3267,874.8105 122.5,862.1094 C124.0856,861.4962 125.1634,862.5153 124.6737,864.1322 C117.1479,860.6593 115.5255,853.5073 122.8925,848.3532 C114.7992,844.7432 114.5224,838.4194 121.5428,833.4414 C114.1398,830.5477 111.3686,823.1199 118.9853,817.7744 C111.3632,813.3461 110.0554,807.5365 117.5563,801.7589 C110.0426,798.4871 110.6783,791.28 116.6429,787.1646 C110.8691,782.6351 110.8117,775.4738 118.3775,772.5249 C111.0927,766.9101 110.0983,758.9788 120.101,755.0712 C113.4216,750.6518 114.7598,745.9964 120.2011,741.6675 C113.3915,736.331 114.9204,729.7579 122.4419,726.5449 C113.1733,715.3804 115.6016,706.5821 129.5,702.1094 C131.3398,701.667 132.0893,702.6742 131.7785,704.3851" fill="#E0FFFF" style="stroke:#181818;stroke-width:1;"/><text fill="#000000" font-family="sans-serif" font-size="14" font-weight="bold" lengthAdjust="spacing" textLength="51.3379" x="207.8311" y="721.6426">Internet</text></g><!--cluster MQTT Broker\n(HiveMQ Cloud)--><g class="cluster" data-entity="MQTT Broker.n.HiveMQ Cloud." data-source-line="20" data-uid="ent0008" id="cluster_MQTT Broker.n.HiveMQ Cloud."><rect fill="#90EE90" height="115" rx="2.5" ry="2.5" style="stroke:#181818;stroke-width:1;" width="190" x="138.5" y="738.1094"/><text fill="#000000" font-family="sans-serif" font-size="14" font-weight="bold" lengthAdjust="spacing" textLength="88.6758" x="189.1621" y="754.6426">MQTT Broker</text><text fill="#000000" font-family="sans-serif" font-size="14" font-weight="bold" lengthAdjust="spacing" textLength="104.9932" x="181.0034" y="772.252">(HiveMQ Cloud)</text></g><!--cluster Rede Externa / Escrit?rio--><g class="cluster" data-entity="Rede Externa . Escrit.rio" data-source-line="26" data-uid="ent0010" id="cluster_Rede Externa . Escrit.rio"><rect fill="#FFFFE0" height="353.5" rx="2.5" ry="2.5" style="stroke:#181818;stroke-width:1;" width="184" x="141.5" y="943.1094"/><text fill="#000000" font-family="sans-serif" font-size="14" font-weight="bold" lengthAdjust="spacing" textLength="166.5029" x="150.2485" y="959.6426">Rede Externa / Escrit&#243;rio</text></g><!--cluster Raspberry Pi #2\n[Subscriber]--><g class="cluster" data-entity="Raspberry Pi .2.n.Subscriber." data-source-line="27" data-uid="ent0011" id="cluster_Raspberry Pi .2.n.Subscriber."><rect fill="#FFC0CB" height="125" rx="2.5" ry="2.5" style="stroke:#181818;stroke-width:1;" width="136" x="165.5" y="987.1094"/><text fill="#000000" font-family="sans-serif" font-size="14" font-weight="bold" lengthAdjust="spacing" textLength="105.834" x="180.583" y="1003.6426">Raspberry Pi #2</text><text fill="#000000" font-family="sans-serif" font-size="14" font-weight="bold" lengthAdjust="spacing" textLength="82.4619" x="192.269" y="1021.252">[Subscriber]</text></g><!--entity sensors--><g class="entity" data-entity="sensors" data-source-line="10" data-uid="ent0003" id="entity_sensors"><rect fill="#ADD8E6" height="55.2188" rx="2.5" ry="2.5" style="stroke:#181818;stroke-width:0.5;" width="127.3721" x="247" y="81.6094"/><text fill="#000000" font-family="sans-serif" font-size="14" lengthAdjust="spacing" textLength="59.1445" x="257" y="106.1426">Sensores</text><text fill="#000000" font-family="sans-serif" font-size="14" lengthAdjust="spacing" textLength="107.3721" x="257" y="123.752">Temperatura/Kits</text></g><!--entity pub--><g class="entity" data-entity="pub" data-source-line="13" data-uid="ent0005" id="entity_pub"><rect fill="#F1F1F1" height="55.2188" rx="2.5" ry="2.5" style="stroke:#181818;stroke-width:0.5;" width="103.2617" x="260" y="298.1094"/><text fill="#000000" font-family="sans-serif" font-size="14" lengthAdjust="spacing" textLength="83.2617" x="270" y="322.6426">Script Python</text><text fill="#000000" font-family="sans-serif" font-size="14" lengthAdjust="spacing" textLength="75.4893" x="270" y="340.252">publisher.py</text></g><!--entity modem--><g class="entity" data-entity="modem" data-source-line="14" data-uid="ent0006" id="entity_modem"><rect fill="#FFA500" height="55.2188" rx="2.5" ry="2.5" style="stroke:#181818;stroke-width:0.5;" width="118.8135" x="260" y="533.1094"/><text fill="#000000" font-family="sans-serif" font-size="14" lengthAdjust="spacing" textLength="98.8135" x="270" y="557.6426">Modem 4G/LTE</text><text fill="#000000" font-family="sans-serif" font-size="14" lengthAdjust="spacing" textLength="71.1895" x="270" y="575.252">+ SIM Card</text></g><!--entity topic--><g class="entity" data-entity="topic" data-source-line="21" data-uid="ent0009" id="entity_topic"><path d="M159.5,792.1094 L307.251,792.1094 C312.251,792.1094 312.251,814.7188 312.251,814.7188 C312.251,814.7188 312.251,837.3281 307.251,837.3281 L159.5,837.3281 C154.5,837.3281 154.5,814.7188 154.5,814.7188 C154.5,814.7188 154.5,792.1094 159.5,792.1094" fill="#FFFF00" style="stroke:#181818;stroke-width:0.5;"/><path d="M307.251,792.1094 C302.251,792.1094 302.251,814.7188 302.251,814.7188 C302.251,837.3281 307.251,837.3281 307.251,837.3281" fill="none" style="stroke:#181818;stroke-width:0.5;"/><text fill="#000000" font-family="sans-serif" font-size="14" lengthAdjust="spacing" textLength="38.124" x="159.5" y="811.6426">Topic:</text><text fill="#000000" font-family="sans-serif" font-size="14" lengthAdjust="spacing" textLength="137.751" x="159.5" y="829.252">producao/temperatura</text></g><!--entity db--><g class="entity" data-entity="db" data-source-line="30" data-uid="ent0013" id="entity_db"><path d="M162,1226.6094 C162,1216.6094 233.4756,1216.6094 233.4756,1216.6094 C233.4756,1216.6094 304.9512,1216.6094 304.9512,1226.6094 L304.9512,1270.8281 C304.9512,1280.8281 233.4756,1280.8281 233.4756,1280.8281 C233.4756,1280.8281 162,1280.8281 162,1270.8281 L162,1226.6094" fill="#D3D3D3" style="stroke:#181818;stroke-width:0.5;"/><path d="M162,1226.6094 C162,1236.6094 233.4756,1236.6094 233.4756,1236.6094 C233.4756,1236.6094 304.9512,1236.6094 304.9512,1226.6094" fill="none" style="stroke:#181818;stroke-width:0.5;"/><text fill="#000000" font-family="sans-serif" font-size="14" lengthAdjust="spacing" textLength="95.7305" x="172" y="1255.1426">Base de Dados</text><text fill="#000000" font-family="sans-serif" font-size="14" lengthAdjust="spacing" textLength="122.9512" x="172" y="1272.752">PostgreSQL/SQLite</text></g><!--entity sub--><g class="entity" data-entity="sub" data-source-line="28" data-uid="ent0012" id="entity_sub"><rect fill="#F1F1F1" height="55.2188" rx="2.5" ry="2.5" style="stroke:#181818;stroke-width:0.5;" width="103.2617" x="182" y="1041.1094"/><text fill="#000000" font-family="sans-serif" font-size="14" lengthAdjust="spacing" textLength="83.2617" x="192" y="1065.6426">Script Python</text><text fill="#000000" font-family="sans-serif" font-size="14" lengthAdjust="spacing" textLength="83.2549" x="192" y="1083.252">subscriber.py</text></g><g class="entity" data-entity="GMN19" data-source-line="42" data-uid="ent0020" id="entity_GMN19"><path d="M435.5,230.6094 L435.5,321.6094 L363.21,325.6094 L435.5,329.6094 L435.5,420.4766 A0,0 0 0 0 435.5,420.4766 L621.1899,420.4766 A0,0 0 0 0 621.1899,420.4766 L621.1899,240.6094 L611.1899,230.6094 L435.5,230.6094 A0,0 0 0 0 435.5,230.6094" fill="#FEFFDD" style="stroke:#181818;stroke-width:0.5;"/><path d="M611.1899,230.6094 L611.1899,240.6094 L621.1899,240.6094 L611.1899,230.6094" fill="#FEFFDD" style="stroke:#181818;stroke-width:0.5;"/><text fill="#000000" font-family="sans-serif" font-size="13" font-weight="bold" lengthAdjust="spacing" textLength="164.6899" x="441.5" y="249.1045">Dados Publicados (JSON):</text><text fill="#000000" font-family="sans-serif" font-size="13" lengthAdjust="spacing" textLength="4.3418" x="441.5" y="265.4561">{</text><text fill="#000000" font-family="sans-serif" font-size="13" lengthAdjust="spacing" textLength="152.3247" x="448.7236" y="281.8076">"timestamp": 1234567890,</text><text fill="#000000" font-family="sans-serif" font-size="13" lengthAdjust="spacing" textLength="115.4575" x="448.7236" y="298.1592">"temperatura": 25.5,</text><text fill="#000000" font-family="sans-serif" font-size="13" lengthAdjust="spacing" textLength="108.7861" x="448.7236" y="314.5107">"kit_id": "KIT_001",</text><text fill="#000000" font-family="sans-serif" font-size="13" lengthAdjust="spacing" textLength="100.8579" x="448.7236" y="330.8623">"linha": "Linha_A"</text><text fill="#000000" font-family="sans-serif" font-size="13" lengthAdjust="spacing" textLength="4.3418" x="441.5" y="347.2139">}</text><text fill="#000000" font-family="sans-serif" font-size="13" lengthAdjust="spacing" textLength="3.6118" x="441.5" y="363.5654">&#160;</text><text fill="#000000" font-family="sans-serif" font-size="13" font-weight="bold" lengthAdjust="spacing" textLength="64.9937" x="441.5" y="379.917">Protocolo:</text><text fill="#000000" font-family="sans-serif" font-size="13" lengthAdjust="spacing" textLength="36.8228" x="510.1055" y="379.917">MQTT</text><text fill="#000000" font-family="sans-serif" font-size="13" font-weight="bold" lengthAdjust="spacing" textLength="31.0527" x="441.5" y="396.2686">QoS:</text><text fill="#000000" font-family="sans-serif" font-size="13" lengthAdjust="spacing" textLength="114.1816" x="476.1646" y="396.2686">1 (garantia entrega)</text><text fill="#000000" font-family="sans-serif" font-size="13" font-weight="bold" lengthAdjust="spacing" textLength="73.6836" x="441.5" y="412.6201">Frequ&#234;ncia:</text><text fill="#000000" font-family="sans-serif" font-size="13" lengthAdjust="spacing" textLength="67.2217" x="518.7954" y="412.6201">5 segundos</text></g><g class="entity" data-entity="GMN22" data-source-line="56" data-uid="ent0023" id="entity_GMN22"><path d="M341.5,1014.6094 L341.5,1064.6094 L285.15,1068.6094 L341.5,1072.6094 L341.5,1122.7188 A0,0 0 0 0 341.5,1122.7188 L535.5371,1122.7188 A0,0 0 0 0 535.5371,1122.7188 L535.5371,1024.6094 L525.5371,1014.6094 L341.5,1014.6094 A0,0 0 0 0 341.5,1014.6094" fill="#FEFFDD" style="stroke:#181818;stroke-width:0.5;"/><path d="M525.5371,1014.6094 L525.5371,1024.6094 L535.5371,1024.6094 L525.5371,1014.6094" fill="#FEFFDD" style="stroke:#181818;stroke-width:0.5;"/><text fill="#000000" font-family="sans-serif" font-size="13" font-weight="bold" lengthAdjust="spacing" textLength="134.3672" x="347.5" y="1033.1045">A&#231;&#245;es do Subscriber:</text><text fill="#000000" font-family="sans-serif" font-size="13" lengthAdjust="spacing" textLength="173.0371" x="347.5" y="1049.4561">&#10003; Recebe dados em real-time</text><text fill="#000000" font-family="sans-serif" font-size="13" lengthAdjust="spacing" textLength="117.4063" x="347.5" y="1065.8076">&#10003; Valida informa&#231;&#227;o</text><text fill="#000000" font-family="sans-serif" font-size="13" lengthAdjust="spacing" textLength="115.9399" x="347.5" y="1082.1592">&#10003; Armazena em BD</text><text fill="#000000" font-family="sans-serif" font-size="13" lengthAdjust="spacing" textLength="165.7944" x="347.5" y="1098.5107">&#10003; Triggers/Alertas (opcional)</text><text fill="#000000" font-family="sans-serif" font-size="13" lengthAdjust="spacing" textLength="137.6426" x="347.5" y="1114.8623">&#10003; Dashboard (opcional)</text></g><g class="entity" data-entity="GMN25" data-source-line="65" data-uid="ent0026" id="entity_GMN25"><path d="M6,514.6094 L6,606.3672 A0,0 0 0 0 6,606.3672 L123.56,606.3672 L222.49,792.1094 L131.56,606.3672 L202.8174,606.3672 A0,0 0 0 0 202.8174,606.3672 L202.8174,524.6094 L192.8174,514.6094 L6,514.6094 A0,0 0 0 0 6,514.6094" fill="#FEFFDD" style="stroke:#181818;stroke-width:0.5;"/><path d="M192.8174,514.6094 L192.8174,524.6094 L202.8174,524.6094 L192.8174,514.6094" fill="#FEFFDD" style="stroke:#181818;stroke-width:0.5;"/><text fill="#000000" font-family="sans-serif" font-size="13" font-weight="bold" lengthAdjust="spacing" textLength="131.4346" x="12" y="533.1045">MQTT Broker Config:</text><text fill="#000000" font-family="sans-serif" font-size="13" lengthAdjust="spacing" textLength="153.3848" x="12" y="549.4561">&#8226; Host: broker.hivemq.com</text><text fill="#000000" font-family="sans-serif" font-size="13" lengthAdjust="spacing" textLength="162.8237" x="12" y="565.8076">&#8226; Porta: 1883 (ou 8883 TLS)</text><text fill="#000000" font-family="sans-serif" font-size="13" lengthAdjust="spacing" textLength="175.8174" x="12" y="582.1592">&#8226; Autentica&#231;&#227;o: user/password</text><text fill="#000000" font-family="sans-serif" font-size="13" lengthAdjust="spacing" textLength="107.1421" x="12" y="598.5107">&#8226; Persist&#234;ncia: sim</text></g><!--link sensors to pub--><g class="link" data-entity-1="sensors" data-entity-2="pub" data-source-line="34" data-uid="lnk14" id="link_sensors_pub"><path d="M310.62,136.8394 C310.82,178.0594 311.1509,250.6594 311.3509,291.8794" fill="none" id="sensors-to-pub" style="stroke:#181818;stroke-width:1;"/><polygon fill="#181818" points="311.38,297.8794,315.3363,288.8601,311.3557,292.8794,307.3364,288.8989,311.38,297.8794" style="stroke:#181818;stroke-width:1;"/><text fill="#000000" font-family="sans-serif" font-size="13" lengthAdjust="spacing" textLength="78.7808" x="317.6223" y="181.1045">Leitura dados</text><text fill="#000000" font-family="sans-serif" font-size="13" lengthAdjust="spacing" textLength="91.0254" x="311.5" y="197.4561">(GPIO/Modbus)</text></g><!--link pub to modem--><g class="link" data-entity-1="pub" data-entity-2="modem" data-source-line="35" data-uid="lnk15" id="link_pub_modem"><path d="M312.42,353.3394 C313.96,398.1594 316.8341,481.9829 318.3741,526.8429" fill="none" id="pub-to-modem" style="stroke:#181818;stroke-width:1;"/><polygon fill="#181818" points="318.58,532.8394,322.2689,523.7074,318.4085,527.8423,314.2736,523.9819,318.58,532.8394" style="stroke:#181818;stroke-width:1;"/><text fill="#000000" font-family="sans-serif" font-size="13" lengthAdjust="spacing" textLength="83.0718" x="317.5" y="465.1045">MQTT Publish</text><text fill="#000000" font-family="sans-serif" font-size="13" lengthAdjust="spacing" textLength="34.6709" x="341.7004" y="481.4561">JSON</text></g><!--link modem to topic--><g class="link" data-entity-1="modem" data-entity-2="topic" data-source-line="36" data-uid="lnk16" id="link_modem_topic"><path d="M310.3,588.5794 C293.14,638.8594 258.5177,740.3009 242.8377,786.2509" fill="none" id="modem-to-topic" style="stroke:#181818;stroke-width:1;"/><polygon fill="#181818" points="240.9,791.9294,247.5923,784.7035,242.5148,787.1973,240.0209,782.1198,240.9,791.9294" style="stroke:#181818;stroke-width:1;"/><text fill="#000000" font-family="sans-serif" font-size="13" lengthAdjust="spacing" textLength="44.7954" x="299.9863" y="658.6045">4G/LTE</text><text fill="#000000" font-family="sans-serif" font-size="13" lengthAdjust="spacing" textLength="65.7681" x="289.5" y="674.9561">Connection</text></g><!--link topic to sub--><g class="link" data-entity-1="topic" data-entity-2="sub" data-source-line="37" data-uid="lnk17" id="link_topic_sub"><path d="M233.5,837.5294 C233.5,883.7494 233.5,985.0494 233.5,1035.0594" fill="none" id="topic-to-sub" style="stroke:#181818;stroke-width:1;"/><polygon fill="#181818" points="233.5,1041.0594,237.5,1032.0594,233.5,1036.0594,229.5,1032.0594,233.5,1041.0594" style="stroke:#181818;stroke-width:1;"/><text fill="#000000" font-family="sans-serif" font-size="13" lengthAdjust="spacing" textLength="98.2427" x="234.5" y="907.6045">MQTT Subscribe</text><text fill="#000000" font-family="sans-serif" font-size="13" lengthAdjust="spacing" textLength="34.6709" x="266.2859" y="923.9561">JSON</text></g><!--link sub to db--><g class="link" data-entity-1="sub" data-entity-2="db" data-source-line="38" data-uid="lnk18" id="link_sub_db"><path d="M233.5,1096.2594 C233.5,1128.4594 233.5,1176.5394 233.5,1210.5794" fill="none" id="sub-to-db" style="stroke:#181818;stroke-width:1;"/><polygon fill="#181818" points="233.5,1216.5794,237.5,1207.5794,233.5,1211.5794,229.5,1207.5794,233.5,1216.5794" style="stroke:#181818;stroke-width:1;"/><text fill="#000000" font-family="sans-serif" font-size="13" lengthAdjust="spacing" textLength="47.6709" x="234.5" y="1167.1045">INSERT</text><text fill="#000000" font-family="sans-serif" font-size="13" lengthAdjust="spacing" textLength="35.4199" x="240.6255" y="1183.4561">dados</text></g><!--SRC=[bLNTRkD45BxtKnmv5oI5Dcrt2yKNI6cQxOPDMxUsa82WQcoVEAFOC-xCc19GfNs7lUKABf2uHJn1tuGduSpOJhshvO9KiIRpdR_lVCUdUiD5nHGh8M7f9bUo5jbK5bB1uDNC_dbwPv7Aif82XOdCja1Gc1ecyW9x9dhDCld0HGuhLcZqFCCDcKPS6omPP0WK78qxdPEfjeTGoQn- -kFfTmdx45vFFUyJ-4uAzZxcxVA1FwKYb7mVzs6muFdQV8j58H_W5m_eioiP_0Y5bWhrKiHOLgYOgHKRl-56-y0qQ0VhDiXPKQCBu1wzpBTCLmagjOMGm-1eARuFwwJWUetg1weWv6BJflumVQfuPI3SchKKIr5rNWVLrkMdYu-vNSeCItXvCLx4iwNu5ABv9KoPofnFwS31jQBYcd8VlKVRlMaXwynBxHFykJ2e19gkGTCj4ssDFMANDt4CPqfkK2t5y3N_4IzlcZYZpl528OeUk_iQQ_ACPSNJW2XPAL8cn-QvlwvCOmrWq0ZJB_CMIS7PJxOyrfUtVmzZc6dgdNdwI_6FY_oVyXoJF56TMFVaV-gZTswTGBeLwD4zCsPOmZIbFBFFRfoN8fJQv0gZcyMOljoWSywING_PjYDVC1hSlr5xtUpjqxiZzh-oim01B93R5b8g5tXu4SwlnpGFIQr7dZNfp9in2C19s8xZKdmTNLzv3TGPDa84kt6QIY6eTrmAhu4wG-qASF5s_MiZwbxYp5hDhwBPRRmKhanBx4eQfZqX3Qq8IndagftklRtcdNSrfkuuj457mTuUmOqklk4bQiFAoW_WwFZ5ovFFlpZzyl2p5kpDLW379mSdBR3XvevdTEU_cSTtXuT7VWiKNAojhR-mXxk9xpKQkdfeVHYPqhwZ2XnVTtiZ8_lx28OvRJLXE0ExS31d8uU_KdXVF_qfKiwitGajZvps9j57aO5bxZNy2rmv-hgbFsa4Xqm-zrKrvF_vzHsDH8e9De83wQQG5Vks7It-3Ijune2BbLGbQxPYWqpezyz8RmjvdPstbp6rFqUbnvC25Ma2Grcb93OhHgt5ETFhHD8wwKCVSA39i1JSW3WIlKr1sroiUDuoUFiRlARf3o1nuC6QbaXvVq0lMOk6aieWKKzFNr326axj8Lv4enQVr8RwJ9FXg0LGQrJZYcdz85NMnI12zD-axJveNZuN_2y0]--></g></svg>